PathFileType	4	(X/Y/Z)	C:/Users/beibeiliu/ov580/test_trc/User2\sequence.38_training_dense_right.trc
DataRate	CameraRate	NumFrames	NumMarkers	Units	OrigDataRate	OrigDataStartFrame	OrigNumFrames
120	120	10	19	mm	120	53	105
Frame#	Time	ThumbCMC			ThumbMCP			ThumbIP			ThumbTip			IndexMCP			IndexPIP			IndexTip			MiddleMCP			MiddlePIP			MiddleTip			RingMCP			RingPIP			RingTip			PinkyMCP			PinkyPIP			PinkyTip			BackHand1			BackHand2			BackHand3	
		X0	Y0	Z0	X1	Y1	Z1	X2	Y2	Z2	X3	Y3	Z3	X4	Y4	Z4	X5	Y5	Z5	X6	Y6	Z6	X7	Y7	Z7	X8	Y8	Z8	X9	Y9	Z9	X10	Y10	Z10	X11	Y11	Z11	X12	Y12	Z12	X13	Y13	Z13	X14	Y14	Z14	X15	Y15	Z15	X16	Y16	Z16	X17	Y17	Z17	X18	Y18	Z18	
52	0.433333	151.186	17.1899	-31.5227	124.586	41.9153	-49.6846	96.6229	49.2996	-68.4311	73.3189	49.7057	-80.9865	126.399	-4.1262	-109.478	112.413	11.8968	-132.393	85.5881	31.7263	-138.924	107.369	-24.9595	-108.768	89.0964	-7.22706	-132.16	61.2936	20.3175	-133.247	81.4383	-24.8897	-94.1648	61.7859	-4.93502	-106.238	46.8433	26.6041	-101.072	70.393	-33.1633	-70.9272	49.8831	-19.1183	-87.4225	34.5135	0.582679	-98.6413	115.624	-47.2596	-43.9938	132.472	-49.3121	-11.9782	150.116	-29.2591	-38.4852	
53	0.441667	151.05	16.8795	-31.625	126.728	44.0071	-49.6713	99.8031	54.303	-66.8396	72.3605	51.5697	-83.2415	128.436	-5.96203	-107.41	112.12	5.87907	-129.982	88.5004	25.8409	-138.982	110.69	-24.631	-108.324	85.1287	-9.40571	-135.073	61.1159	15.2695	-137.625	80.2085	-29.8466	-95.0586	61.4624	-13.2035	-109.299	47.9992	20.4216	-112.456	68.6292	-36.886	-68.8055	46.7021	-25.4775	-84.1582	34.2047	-6.87844	-100.236	117.381	-48.0089	-42.2326	131.975	-50.575	-13.8296	153.504	-29.1809	-40.7632	
54	0.45	149.32	14.5872	-31.7818	127.363	40.7249	-47.7326	99.7803	54.5473	-69.509	77.0028	56.2211	-79.704	125.405	-6.97998	-111.807	109.824	8.21689	-134.481	89.2808	25.1792	-142.403	108.215	-25.7849	-110.79	84.9888	-9.82713	-136.263	64.8	14.2617	-142.248	82.5935	-29.9352	-96.8289	60.8481	-18.0394	-111.089	46.2078	9.37473	-119.169	66.4939	-37.4063	-72.4565	45.8303	-25.3181	-87.7864	27.1498	-8.25075	-102.515	117.203	-45.6438	-46.258	130.043	-51.2665	-13.5142	152.12	-29.9975	-43.9902	
55	0.458333	148.153	13.9717	-32.8828	125.653	39.5775	-51.1467	101.629	56.0277	-67.5985	75.1795	54.2799	-81.4526	127.328	-5.64718	-111.02	109.359	6.3165	-132.621	89.5782	24.1207	-142.579	107.247	-25.7445	-109.768	86.1429	-10.6167	-134.647	60.1426	16.481	-141.747	81.4912	-32.5361	-93.1066	63.4748	-13.7398	-114.859	42.4192	8.92533	-120.269	68.3627	-37.2031	-70.6439	43.7798	-26.4106	-86.8704	31.1912	-11.0128	-103.565	115.895	-47.9155	-46.3325	129.593	-50.3314	-13.1683	152.902	-28.0641	-43.5214	
56	0.466667	148.463	14.371	-32.6074	124.958	41.2194	-50.0092	99.5247	52.867	-69.38	75.2878	53.9613	-81.8025	125.472	-6.28588	-109.917	113.061	7.3658	-130.905	88.9778	27.9182	-142.408	107.382	-24.611	-108.342	85.2524	-10.7825	-131.424	62.0726	17.9871	-138.304	83.9905	-28.1901	-93.5422	59.559	-12.6086	-110.169	43.5853	14.4011	-112.68	69.3847	-34.8296	-72.2631	45.0734	-24.6262	-85.8599	28.3131	-6.46709	-98.8589	115.105	-46.9953	-42.6344	130.014	-50.8617	-13.8362	149.687	-29.4206	-41.7031	
57	0.475	148.592	16.3415	-29.9273	123.209	41.4244	-51.4125	95.457	53.6465	-72.0305	74.6463	50.2787	-79.3695	128.936	-3.82276	-107.507	110.529	8.26593	-130.939	86.2144	29.9594	-137.839	105.692	-23.4009	-106.898	83.8225	-4.96912	-132.114	60.757	21.6146	-131.01	80.7455	-25.9552	-90.7545	60.4657	-5.91858	-105.689	49.5634	27.287	-102.538	65.7084	-33.5939	-71.9457	50.0128	-17.9327	-87.0457	31.2939	3.25807	-99.8938	118.672	-44.4756	-43.3801	128.884	-49.9663	-15.6537	149.676	-28.4869	-40.385	
58	0.483333	147.113	15.9525	-32.178	123.702	42.181	-48.1575	98.0286	55.0552	-69.1357	71.7744	47.7475	-80.76	126.958	-4.2352	-106.646	111.274	11.7721	-132.312	88.4355	31.9802	-136.771	107.177	-22.6131	-105.73	80.3451	-4.29312	-130.517	61.9259	28.773	-127.748	83.2602	-21.6143	-93.0264	58.019	-0.48887	-101.726	50.5685	29.431	-95.3899	66.8351	-31.7618	-71.0654	47.9936	-14.8485	-85.9808	32.437	5.33755	-96.8657	115.57	-44.5625	-41.2557	130.552	-49.9401	-10.8913	151.089	-27.8797	-38.7522	
59	0.491667	146.709	15.2233	-30.8744	124.648	43.6936	-49.6254	95.2795	48.8902	-69.563	72.635	48.5339	-80.1446	129.566	-2.92076	-107.69	110.358	8.69965	-130.038	84.5999	29.2393	-135.224	105.65	-22.1319	-109.007	82.0749	-4.21184	-130.846	61.6953	24.4937	-127.162	79.983	-23.9578	-92.6304	57.9675	-2.03452	-102.939	48.2983	27.8206	-93.6639	67.5148	-33.1674	-69.1673	47.153	-16.8796	-83.8652	35.9189	5.20753	-94.3201	115.349	-43.7638	-46.102	130.991	-50.1976	-11.7521	151.018	-29.3414	-38.214	
60	0.5	149.936	18.2387	-29.2765	124.088	39.1609	-47.973	97.9288	52.4012	-69.0839	72.6633	51.98	-82.7433	127.144	-5.24945	-109.421	109.554	11.845	-131.874	86.4076	33.0072	-137.328	110.26	-22.2793	-106.269	88.0384	-4.10889	-130.715	59.0223	26.7323	-126.081	80.2431	-25.8847	-95.0881	61.1691	-6.33786	-105.251	48.1224	25.0466	-98.9351	67.7939	-35.0335	-68.2505	50.384	-16.3653	-88.351	33.1907	-0.0392411	-95.155	116.174	-46.4795	-43.9486	130.992	-50.8449	-12.7074	151.129	-29.1498	-41.3813	
61	0.508333	148.349	17.0666	-32.7149	126.237	44.745	-47.5646	98.0491	55.7483	-69.9243	74.8857	50.4602	-80.2648	131.079	-4.35494	-106.192	108.866	8.74591	-130.823	90.6311	30.4713	-137.495	108.068	-24.1126	-104.918	88.0631	-4.04096	-132.761	64.5606	24.0575	-132.022	87.9009	-28.427	-96.1044	68.0974	-14.3641	-112.028	49.7749	15.0484	-111.851	71.1647	-36.1424	-73.7313	51.2272	-25.0864	-87.4758	34.3209	-2.38378	-103.857	115.808	-45.3009	-44.6661	130.735	-50.461	-13.8154	154.046	-26.667	-40.7544	
